<svg xmlns="http://www.w3.org/2000/svg" viewBox="0 0 1200 760" role="img" aria-labelledby="t d"><title id="t">DataSniper dashboard preview</title><desc id="d">Product preview of the DataSniper dashboard with one next action and simple progress cards.</desc><rect width="1200" height="760" rx="30" fill="#eef4f8"/><rect x="30" y="28" width="1140" height="704" rx="24" fill="white" stroke="#dbe6ef"/><rect x="30" y="28" width="1140" height="72" rx="24" fill="#07111f"/><path d="M70 47 91 55v15c0 14-8 23-21 28-13-5-21-14-21-28V55z" fill="#14b8a6"/><text x="108" y="75" fill="white" font-family="Segoe UI,Arial" font-size="25" font-weight="700">DataSniper</text><text x="1035" y="73" fill="#b8c7d9" font-family="Segoe UI,Arial" font-size="15">Family admin</text><g transform="translate(75 140)"><text fill="#0f172a" font-family="Segoe UI,Arial" font-size="38" font-weight="750">Hello, Jeff</text><text y="37" fill="#64748b" font-family="Segoe UI,Arial" font-size="18">Your agent will surface only the next thing that needs you.</text><g transform="translate(0 80)"><rect width="250" height="110" rx="18" fill="#f8fafc" stroke="#dbe6ef"/><text x="25" y="51" fill="#0f172a" font-family="Segoe UI,Arial" font-size="34" font-weight="750">11</text><text x="25" y="80" fill="#64748b" font-family="Segoe UI,Arial" font-size="15">protections tracked</text><rect x="270" width="250" height="110" rx="18" fill="#f8fafc" stroke="#dbe6ef"/><text x="295" y="51" fill="#0f172a" font-family="Segoe UI,Arial" font-size="34" font-weight="750">4</text><text x="295" y="80" fill="#64748b" font-family="Segoe UI,Arial" font-size="15">waiting on companies</text><rect x="540" width="250" height="110" rx="18" fill="#f8fafc" stroke="#dbe6ef"/><text x="565" y="51" fill="#0f172a" font-family="Segoe UI,Arial" font-size="34" font-weight="750">6</text><text x="565" y="80" fill="#64748b" font-family="Segoe UI,Arial" font-size="15">completed</text><rect x="810" width="250" height="110" rx="18" fill="#fff7ed" stroke="#fed7aa"/><text x="835" y="51" fill="#c2410c" font-family="Segoe UI,Arial" font-size="34" font-weight="750">1</text><text x="835" y="80" fill="#9a3412" font-family="Segoe UI,Arial" font-size="15">needs a recheck</text></g><g transform="translate(0 225)"><rect width="1060" height="190" rx="22" fill="#e8f2ff"/><text x="28" y="40" fill="#2563eb" font-family="Segoe UI,Arial" font-size="16" font-weight="700">YOUR NEXT STEP</text><text x="28" y="83" fill="#0f172a" font-family="Segoe UI,Arial" font-size="30" font-weight="730">Remove your PeopleConnect profile</text><text x="28" y="118" fill="#475569" font-family="Segoe UI,Arial" font-size="17">One guided request covers four major people-search brands.</text><rect x="825" y="67" width="200" height="58" rx="14" fill="#2563eb"/><text x="925" y="103" text-anchor="middle" fill="white" font-family="Segoe UI,Arial" font-size="18" font-weight="700">Continue protection</text></g><g transform="translate(0 445)"><text fill="#0f172a" font-family="Segoe UI,Arial" font-size="24" font-weight="720">Protection tasks</text><g transform="translate(0 36)"><rect width="1060" height="70" rx="14" fill="#fff" stroke="#dbe6ef"/><circle cx="30" cy="35" r="10" fill="#22c55e"/><text x="55" y="31" fill="#0f172a" font-family="Segoe UI,Arial" font-size="17" font-weight="650">Spokeo</text><text x="55" y="52" fill="#64748b" font-family="Segoe UI,Arial" font-size="13">Removal verified · monitoring for resurfacing</text><rect x="915" y="17" width="112" height="36" rx="9" fill="#ecfdf5"/><text x="971" y="40" text-anchor="middle" fill="#047857" font-family="Segoe UI,Arial" font-size="13" font-weight="700">Completed</text></g><g transform="translate(0 118)"><rect width="1060" height="70" rx="14" fill="#fff" stroke="#dbe6ef"/><circle cx="30" cy="35" r="10" fill="#3b82f6"/><text x="55" y="31" fill="#0f172a" font-family="Segoe UI,Arial" font-size="17" font-weight="650">Whitepages</text><text x="55" y="52" fill="#64748b" font-family="Segoe UI,Arial" font-size="13">Request submitted · response expected August 8</text><rect x="915" y="17" width="112" height="36" rx="9" fill="#eff6ff"/><text x="971" y="40" text-anchor="middle" fill="#1d4ed8" font-family="Segoe UI,Arial" font-size="13" font-weight="700">Waiting</text></g></g></g></svg>